<?xml version="1.0" standalone="no"?>
<!DOCTYPE svg PUBLIC "-//W3C//DTD SVG 20010904//EN"
 "http://www.w3.org/TR/2001/REC-SVG-20010904/DTD/svg10.dtd">
<svg version="1.0" xmlns="http://www.w3.org/2000/svg"
 width="16.000000pt" height="16.000000pt" viewBox="0 0 16.000000 16.000000"
 preserveAspectRatio="xMidYMid meet">
<metadata>
Created by potrace 1.11, written by Peter Selinger 2001-2013
</metadata>
<g transform="translate(0.000000,16.000000) scale(0.006250,-0.006250)"
fill="#000000" stroke="none">
<path d="M0 2125 l0 -435 91 0 91 0 -6 83 c-3 45 -9 133 -12 196 -6 97 -9 114
-24 118 -28 7 -33 45 -9 63 20 16 20 20 9 190 -16 239 -9 220 -80 220 l-60 0
0 -435z"/>
<path d="M525 2549 c-4 -5 -2 -93 3 -197 6 -103 10 -207 11 -232 1 -90 21
-567 26 -646 l6 -82 -46 -15 c-51 -18 -89 -56 -106 -107 -12 -35 -83 -124
-149 -188 l-35 -33 -118 3 -117 3 0 -527 0 -528 450 0 450 0 0 48 c0 77 19
212 40 282 11 36 44 106 73 155 30 50 60 107 66 127 16 49 28 55 43 21 15 -38
14 -41 -49 -168 -30 -60 -63 -137 -73 -170 -20 -64 -40 -190 -40 -256 l0 -39
800 0 800 0 0 1280 0 1279 -1015 0 c-629 0 -1017 -4 -1020 -10z m572 -335 c19
-18 64 -18 133 2 66 19 120 25 135 16 5 -4 22 -8 38 -9 15 -2 38 -4 52 -5 14
-2 23 -8 21 -13 -2 -6 2 -19 10 -30 8 -10 14 -28 14 -40 0 -11 11 -32 25 -47
14 -15 25 -32 25 -38 0 -10 13 -14 38 -11 8 1 12 -15 12 -54 l0 -55 -52 0
c-65 0 -105 10 -87 21 22 13 -79 22 -126 10 -24 -6 -63 -11 -87 -11 -24 0 -49
-5 -54 -10 -11 -11 -62 5 -75 24 -4 5 -12 6 -18 2 -6 -4 -34 0 -63 9 -108 32
-213 12 -206 -38 2 -14 -3 -23 -14 -25 -26 -5 -24 58 3 89 60 69 95 102 122
112 10 4 16 11 12 17 -7 11 8 42 39 82 18 24 26 27 55 22 19 -3 40 -12 48 -20z
m1221 -45 c-3 -20 -5 -19 -9 9 -3 20 -2 29 4 23 5 -5 7 -19 5 -32z m-401 -31
c-3 -7 -5 -2 -5 12 0 14 2 19 5 13 2 -7 2 -19 0 -25z m-17 -67 c0 -6 -9 -9
-19 -8 -11 0 -17 5 -15 9 7 11 34 10 34 -1z m-200 -124 c0 -8 -11 -19 -25 -25
-20 -9 -25 -9 -25 1 0 17 20 37 37 37 7 0 13 -6 13 -13z m-785 -17 c4 -6 -7
-10 -24 -10 -17 0 -31 5 -31 10 0 6 11 10 24 10 14 0 28 -4 31 -10z m590 -24
c30 -13 34 -20 41 -63 5 -34 2 -61 -9 -92 -8 -24 -11 -39 -5 -33 6 6 18 39 28
73 21 78 40 89 40 24 0 -40 2 -46 18 -41 17 6 17 1 11 -56 -8 -74 -16 -98 -34
-98 -7 0 -15 -18 -19 -41 -4 -23 -16 -67 -27 -98 -11 -31 -22 -78 -25 -105 -9
-90 -59 -176 -102 -176 -23 0 -23 0 7 37 35 43 39 55 14 46 -16 -6 -15 -3 2
17 l20 23 -44 -23 c-24 -12 -68 -46 -97 -77 l-54 -55 -53 7 c-28 4 -70 13 -92
21 -22 8 -47 14 -55 14 -28 0 -100 90 -113 138 -6 24 19 44 32 25 40 -59 50
-63 168 -65 43 -1 83 22 83 47 0 14 -74 45 -107 45 -12 0 -25 5 -28 10 -6 10
20 7 62 -5 16 -5 93 26 93 37 0 5 -5 6 -12 2 -7 -4 -27 -9 -45 -11 -24 -3 -33
0 -33 12 0 8 3 15 8 16 76 6 100 5 95 -8 -4 -9 4 -13 27 -13 20 0 47 -10 67
-26 24 -18 34 -22 38 -12 36 103 35 100 12 124 -30 30 -70 84 -66 88 32 21 60
34 89 40 19 3 46 16 60 27 25 20 25 20 -15 -1 -47 -24 -120 -26 -170 -5 -33
13 -42 25 -59 82 l-7 23 52 -25 c36 -16 62 -22 83 -18 32 6 60 23 38 23 -28 0
-9 29 26 40 20 7 41 16 45 20 10 9 -39 49 -67 55 -84 16 -83 16 -62 31 25 18
97 18 141 0z m-530 -11 c-25 -9 -104 -12 -99 -4 3 5 29 9 57 8 29 0 48 -2 42
-4z m-120 -75 c13 -7 25 -22 27 -34 6 -43 54 -51 166 -30 27 5 32 3 32 -13 0
-38 -28 -62 -83 -70 -45 -6 -48 -8 -27 -15 17 -5 4 -6 -37 -5 -49 3 -68 8 -87
26 -37 34 -51 76 -37 107 6 14 12 42 12 62 2 28 3 30 6 11 2 -15 15 -32 28
-39z m115 50 c0 -5 -4 -10 -10 -10 -5 0 -10 5 -10 10 0 6 5 10 10 10 6 0 10
-4 10 -10z m466 -15 c18 -14 16 -14 -16 -8 -52 9 -72 22 -34 23 16 0 39 -7 50
-15z m224 -17 c0 -5 -4 -8 -10 -8 -5 0 -10 10 -10 23 0 18 2 19 10 7 5 -8 10
-18 10 -22z m-473 -29 c-6 -22 24 -75 80 -142 32 -40 31 -75 -4 -82 -16 -3
-40 -12 -55 -20 -24 -12 -30 -11 -59 11 -18 13 -43 24 -55 24 -58 0 -69 23
-28 61 34 32 89 129 86 151 -2 13 3 18 19 18 17 0 20 -4 16 -21z m-327 -181
c0 -27 -11 -48 -26 -48 -8 0 -14 -8 -15 -17 -1 -38 -16 22 -23 92 l-7 70 35
-40 c19 -22 35 -48 36 -57z m115 -28 c-3 -5 -17 -10 -31 -10 -14 0 -22 4 -19
10 3 6 17 10 31 10 14 0 22 -4 19 -10z m329 -51 c14 -11 26 -28 26 -38 0 -15
-8 -17 -62 -13 -35 2 -65 6 -67 8 -6 5 57 64 68 64 4 0 20 -9 35 -21z m-144
-99 c0 -5 -7 -10 -15 -10 -8 0 -15 5 -15 10 0 6 7 10 15 10 8 0 15 -4 15 -10z
m13 -745 c-9 -27 -18 -54 -20 -59 -11 -18 -32 41 -33 90 l0 51 34 -16 33 -16
-14 -50z m-587 -80 c-3 -8 -2 -15 2 -15 11 0 31 -50 26 -65 -3 -7 -1 -22 5
-33 6 -11 12 -34 13 -51 1 -17 4 -31 6 -31 3 0 20 13 38 30 19 16 52 34 73 40
22 6 43 15 46 20 3 6 15 10 26 10 13 0 19 7 19 21 0 11 -4 18 -9 14 -5 -3 -12
-1 -15 4 -13 20 17 22 36 3 l20 -20 -24 -53 c-24 -52 -58 -99 -72 -99 -3 0
-24 -13 -46 -29 -39 -28 -39 -29 -19 -43 21 -13 21 -14 -20 -41 -53 -35 -71
-35 -70 1 2 23 2 24 6 4 5 -24 11 -26 31 -14 9 7 8 13 -8 27 -16 14 -23 16
-32 7 -7 -7 -20 -12 -29 -12 -9 0 -22 -7 -29 -15 -15 -18 -45 -21 -34 -3 5 8
2 9 -10 5 -10 -4 -22 -5 -26 -2 -16 10 2 35 24 35 22 0 46 17 46 32 0 13 -30
9 -30 -4 -1 -8 -6 -5 -15 5 -18 24 -10 44 21 51 18 5 24 14 25 34 l1 27 7 -25
c4 -15 15 -26 29 -28 26 -4 28 6 5 24 -17 13 -17 13 0 14 24 0 21 14 -5 33
-22 15 -22 16 -3 16 17 1 17 3 5 15 -8 8 -28 18 -43 22 l-29 7 16 -31 c25 -47
19 -52 -7 -6 -23 39 -32 78 -16 68 4 -2 7 8 6 23 -2 21 4 28 23 34 38 11 43
10 36 -6z"/>
<path d="M550 591 c-12 -24 -13 -34 -1 -27 9 6 22 46 15 46 -2 0 -8 -9 -14
-19z"/>
<path d="M566 565 c-3 -8 -1 -15 4 -15 6 0 10 7 10 15 0 8 -2 15 -4 15 -2 0
-6 -7 -10 -15z"/>
<path d="M819 503 c-13 -16 -12 -17 4 -4 16 13 21 21 13 21 -2 0 -10 -8 -17
-17z"/>
<path d="M746 474 c-9 -8 -16 -22 -16 -30 0 -8 -5 -14 -11 -14 -6 0 -8 9 -4
20 3 11 2 20 -3 20 -17 0 -42 -37 -42 -63 0 -30 -16 -37 -23 -9 -4 16 -4 16
-12 -1 -10 -23 17 -52 39 -44 9 4 16 16 16 28 0 18 2 20 15 9 20 -16 28 -8 54
53 21 48 15 60 -13 31z"/>
<path d="M551 386 c-16 -19 16 -31 37 -14 13 11 15 10 10 -4 -6 -14 8 -28 28
-28 10 0 2 18 -16 38 -24 25 -43 28 -59 8z"/>
<path d="M580 330 c0 -5 5 -10 10 -10 6 0 10 5 10 10 0 6 -4 10 -10 10 -5 0
-10 -4 -10 -10z"/>
<path d="M667 310 c4 -16 8 -18 19 -9 16 13 10 29 -11 29 -8 0 -11 -7 -8 -20z"/>
<path d="M45 1649 c28 -5 69 -13 93 -18 23 -5 45 -5 47 0 9 14 -14 20 -102 24
-79 4 -83 3 -38 -6z"/>
</g>
</svg>
