<?xml version="1.0" encoding="utf-8"?>
<!-- Generator: Adobe Illustrator 21.0.2, SVG Export Plug-In . SVG Version: 6.00 Build 0)  -->
<svg version="1.1" id="Layer_1" xmlns="http://www.w3.org/2000/svg" xmlns:xlink="http://www.w3.org/1999/xlink" x="0px" y="0px"
	 width="116px" height="165.4px" viewBox="0 0 116 165.4" style="enable-background:new 0 0 116 165.4;" xml:space="preserve">
<style type="text/css">
	.st0{fill:#FCEE21;}
</style>
<g>
	<circle class="st0" cx="2.5" cy="3.2" r="2.5"/>
	<circle class="st0" cx="2.5" cy="9.6" r="2.5"/>
	<circle class="st0" cx="15.3" cy="9.6" r="2.5"/>
	<circle class="st0" cx="21.7" cy="3.2" r="2.5"/>
	<circle class="st0" cx="15.3" cy="3.2" r="2.5"/>
	<circle class="st0" cx="8.9" cy="3.2" r="2.5"/>
	<circle class="st0" cx="8.9" cy="9.6" r="2.5"/>
	<circle class="st0" cx="21.7" cy="9.6" r="2.5"/>
	<circle class="st0" cx="28" cy="3.2" r="2.5"/>
	<circle class="st0" cx="28" cy="9.6" r="2.5"/>
	<circle class="st0" cx="40.8" cy="9.6" r="2.5"/>
	<circle class="st0" cx="47.2" cy="3.2" r="2.5"/>
	<circle class="st0" cx="40.8" cy="3.2" r="2.5"/>
	<circle class="st0" cx="34.4" cy="3.2" r="2.5"/>
	<circle class="st0" cx="34.4" cy="9.6" r="2.5"/>
	<circle class="st0" cx="47.2" cy="9.6" r="2.5"/>
	<circle class="st0" cx="2.5" cy="15.9" r="2.5"/>
	<circle class="st0" cx="2.5" cy="22.3" r="2.5"/>
	<circle class="st0" cx="15.3" cy="22.3" r="2.5"/>
	<circle class="st0" cx="21.7" cy="15.9" r="2.5"/>
	<circle class="st0" cx="15.3" cy="15.9" r="2.5"/>
	<circle class="st0" cx="8.9" cy="15.9" r="2.5"/>
	<circle class="st0" cx="8.9" cy="22.3" r="2.5"/>
	<circle class="st0" cx="21.7" cy="22.3" r="2.5"/>
	<circle class="st0" cx="28" cy="15.9" r="2.5"/>
	<circle class="st0" cx="28" cy="22.3" r="2.5"/>
	<circle class="st0" cx="2.5" cy="28.7" r="2.5"/>
	<circle class="st0" cx="2.5" cy="35.1" r="2.5"/>
	<circle class="st0" cx="15.3" cy="35.1" r="2.5"/>
	<circle class="st0" cx="21.7" cy="28.7" r="2.5"/>
	<circle class="st0" cx="15.3" cy="28.7" r="2.5"/>
	<circle class="st0" cx="8.9" cy="28.7" r="2.5"/>
	<circle class="st0" cx="8.9" cy="35.1" r="2.5"/>
	<circle class="st0" cx="21.7" cy="35.1" r="2.5"/>
	<circle class="st0" cx="28" cy="28.7" r="2.5"/>
	<circle class="st0" cx="28" cy="35.1" r="2.5"/>
	<circle class="st0" cx="2.5" cy="41.4" r="2.5"/>
	<circle class="st0" cx="2.5" cy="47.8" r="2.5"/>
	<circle class="st0" cx="15.3" cy="47.8" r="2.5"/>
	<circle class="st0" cx="21.7" cy="41.4" r="2.5"/>
	<circle class="st0" cx="15.3" cy="41.4" r="2.5"/>
	<circle class="st0" cx="8.9" cy="41.4" r="2.5"/>
	<circle class="st0" cx="8.9" cy="47.8" r="2.5"/>
	<circle class="st0" cx="21.7" cy="47.8" r="2.5"/>
	<circle class="st0" cx="28" cy="41.4" r="2.5"/>
	<circle class="st0" cx="28" cy="47.8" r="2.5"/>
	<circle class="st0" cx="3.2" cy="54.2" r="2.5"/>
	<circle class="st0" cx="3.2" cy="60.5" r="2.5"/>
	<circle class="st0" cx="15.9" cy="60.5" r="2.5"/>
	<circle class="st0" cx="22.3" cy="54.2" r="2.5"/>
	<circle class="st0" cx="15.9" cy="54.2" r="2.5"/>
	<circle class="st0" cx="9.6" cy="54.2" r="2.5"/>
	<circle class="st0" cx="9.6" cy="60.5" r="2.5"/>
	<circle class="st0" cx="22.3" cy="60.5" r="2.5"/>
	<circle class="st0" cx="28.7" cy="54.2" r="2.5"/>
	<circle class="st0" cx="28.7" cy="60.5" r="2.5"/>
	<circle class="st0" cx="3.2" cy="66.9" r="2.5"/>
	<circle class="st0" cx="3.2" cy="73.3" r="2.5"/>
	<circle class="st0" cx="15.9" cy="73.3" r="2.5"/>
	<circle class="st0" cx="22.3" cy="66.9" r="2.5"/>
	<circle class="st0" cx="15.9" cy="66.9" r="2.5"/>
	<circle class="st0" cx="9.6" cy="66.9" r="2.5"/>
	<circle class="st0" cx="9.6" cy="73.3" r="2.5"/>
	<circle class="st0" cx="22.3" cy="73.3" r="2.5"/>
	<circle class="st0" cx="28.7" cy="66.9" r="2.5"/>
	<circle class="st0" cx="28.7" cy="73.3" r="2.5"/>
	<circle class="st0" cx="3.2" cy="79.7" r="2.5"/>
	<circle class="st0" cx="3.2" cy="86" r="2.5"/>
	<circle class="st0" cx="15.9" cy="86" r="2.5"/>
	<circle class="st0" cx="22.3" cy="79.7" r="2.5"/>
	<circle class="st0" cx="15.9" cy="79.7" r="2.5"/>
	<circle class="st0" cx="9.6" cy="79.7" r="2.5"/>
	<circle class="st0" cx="9.6" cy="86" r="2.5"/>
	<circle class="st0" cx="22.3" cy="86" r="2.5"/>
	<circle class="st0" cx="28.7" cy="79.7" r="2.5"/>
	<circle class="st0" cx="28.7" cy="86" r="2.5"/>
	<circle class="st0" cx="3.2" cy="92.4" r="2.5"/>
	<circle class="st0" cx="3.2" cy="98.8" r="2.5"/>
	<circle class="st0" cx="15.9" cy="98.8" r="2.5"/>
	<circle class="st0" cx="22.3" cy="92.4" r="2.5"/>
	<circle class="st0" cx="15.9" cy="92.4" r="2.5"/>
	<circle class="st0" cx="9.6" cy="92.4" r="2.5"/>
	<circle class="st0" cx="9.6" cy="98.8" r="2.5"/>
	<circle class="st0" cx="22.3" cy="98.8" r="2.5"/>
	<circle class="st0" cx="28.7" cy="92.4" r="2.5"/>
	<circle class="st0" cx="28.7" cy="98.8" r="2.5"/>
	<circle class="st0" cx="3.2" cy="105.4" r="2.5"/>
	<circle class="st0" cx="3.2" cy="111.8" r="2.5"/>
	<circle class="st0" cx="15.9" cy="111.8" r="2.5"/>
	<circle class="st0" cx="22.3" cy="105.4" r="2.5"/>
	<circle class="st0" cx="15.9" cy="105.4" r="2.5"/>
	<circle class="st0" cx="9.6" cy="105.4" r="2.5"/>
	<circle class="st0" cx="9.6" cy="111.8" r="2.5"/>
	<circle class="st0" cx="22.3" cy="111.8" r="2.5"/>
	<circle class="st0" cx="28.7" cy="105.4" r="2.5"/>
	<circle class="st0" cx="28.7" cy="111.8" r="2.5"/>
	<circle class="st0" cx="3.2" cy="118.2" r="2.5"/>
	<circle class="st0" cx="3.2" cy="124.6" r="2.5"/>
	<circle class="st0" cx="15.9" cy="124.6" r="2.5"/>
	<circle class="st0" cx="22.3" cy="118.2" r="2.5"/>
	<circle class="st0" cx="15.9" cy="118.2" r="2.5"/>
	<circle class="st0" cx="9.6" cy="118.2" r="2.5"/>
	<circle class="st0" cx="9.6" cy="124.6" r="2.5"/>
	<circle class="st0" cx="22.3" cy="124.6" r="2.5"/>
	<circle class="st0" cx="28.7" cy="118.2" r="2.5"/>
	<circle class="st0" cx="28.7" cy="124.6" r="2.5"/>
	<circle class="st0" cx="3.2" cy="130.9" r="2.5"/>
	<circle class="st0" cx="3.2" cy="137.3" r="2.5"/>
	<circle class="st0" cx="15.9" cy="137.3" r="2.5"/>
	<circle class="st0" cx="22.3" cy="130.9" r="2.5"/>
	<circle class="st0" cx="15.9" cy="130.9" r="2.5"/>
	<circle class="st0" cx="9.6" cy="130.9" r="2.5"/>
	<circle class="st0" cx="9.6" cy="137.3" r="2.5"/>
	<circle class="st0" cx="22.3" cy="137.3" r="2.5"/>
	<circle class="st0" cx="28.7" cy="130.9" r="2.5"/>
	<circle class="st0" cx="28.7" cy="137.3" r="2.5"/>
	<circle class="st0" cx="3.2" cy="143.7" r="2.5"/>
	<circle class="st0" cx="3.2" cy="150.1" r="2.5"/>
	<circle class="st0" cx="15.9" cy="150.1" r="2.5"/>
	<circle class="st0" cx="22.3" cy="143.7" r="2.5"/>
	<circle class="st0" cx="15.9" cy="143.7" r="2.5"/>
	<circle class="st0" cx="9.6" cy="143.7" r="2.5"/>
	<circle class="st0" cx="9.6" cy="150.1" r="2.5"/>
	<circle class="st0" cx="22.3" cy="150.1" r="2.5"/>
	<circle class="st0" cx="28.7" cy="143.7" r="2.5"/>
	<circle class="st0" cx="28.7" cy="150.1" r="2.5"/>
	<circle class="st0" cx="3.8" cy="156.4" r="2.5"/>
	<circle class="st0" cx="3.8" cy="162.8" r="2.5"/>
	<circle class="st0" cx="16.6" cy="162.8" r="2.5"/>
	<circle class="st0" cx="22.9" cy="156.4" r="2.5"/>
	<circle class="st0" cx="16.6" cy="156.4" r="2.5"/>
	<circle class="st0" cx="10.2" cy="156.4" r="2.5"/>
	<circle class="st0" cx="10.2" cy="162.8" r="2.5"/>
	<circle class="st0" cx="22.9" cy="162.8" r="2.5"/>
	<circle class="st0" cx="29.3" cy="156.4" r="2.5"/>
	<circle class="st0" cx="29.3" cy="162.8" r="2.5"/>
	<circle class="st0" cx="60.5" cy="8.9" r="2.5"/>
	<circle class="st0" cx="66.9" cy="2.5" r="2.5"/>
	<circle class="st0" cx="60.5" cy="2.5" r="2.5"/>
	<circle class="st0" cx="54.2" cy="2.5" r="2.5"/>
	<circle class="st0" cx="54.2" cy="8.9" r="2.5"/>
	<circle class="st0" cx="66.9" cy="8.9" r="2.5"/>
	<circle class="st0" cx="73.3" cy="2.5" r="2.5"/>
	<circle class="st0" cx="73.3" cy="8.9" r="2.5"/>
	<circle class="st0" cx="86" cy="8.9" r="2.5"/>
	<circle class="st0" cx="92.4" cy="2.5" r="2.5"/>
	<circle class="st0" cx="86" cy="2.5" r="2.5"/>
	<circle class="st0" cx="79.7" cy="2.5" r="2.5"/>
	<circle class="st0" cx="79.7" cy="8.9" r="2.5"/>
	<circle class="st0" cx="92.4" cy="8.9" r="2.5"/>
	<circle class="st0" cx="98.8" cy="2.5" r="2.5"/>
	<circle class="st0" cx="98.8" cy="8.9" r="2.5"/>
	<circle class="st0" cx="111.5" cy="8.9" r="2.5"/>
	<circle class="st0" cx="111.5" cy="2.5" r="2.5"/>
	<circle class="st0" cx="105.2" cy="2.5" r="2.5"/>
	<circle class="st0" cx="105.2" cy="8.9" r="2.5"/>
	<circle class="st0" cx="41.4" cy="79.7" r="2.5"/>
	<circle class="st0" cx="47.8" cy="73.3" r="2.5"/>
	<circle class="st0" cx="41.4" cy="73.3" r="2.5"/>
	<circle class="st0" cx="35.1" cy="73.3" r="2.5"/>
	<circle class="st0" cx="35.1" cy="79.7" r="2.5"/>
	<circle class="st0" cx="47.8" cy="79.7" r="2.5"/>
	<circle class="st0" cx="61.2" cy="80" r="2.5"/>
	<circle class="st0" cx="67.6" cy="73.7" r="2.5"/>
	<circle class="st0" cx="61.2" cy="73.7" r="2.5"/>
	<circle class="st0" cx="54.8" cy="73.7" r="2.5"/>
	<circle class="st0" cx="54.8" cy="80" r="2.5"/>
	<circle class="st0" cx="67.6" cy="80" r="2.5"/>
	<circle class="st0" cx="73.9" cy="73.7" r="2.5"/>
	<circle class="st0" cx="73.9" cy="80" r="2.5"/>
	<circle class="st0" cx="86.7" cy="80" r="2.5"/>
	<circle class="st0" cx="86.7" cy="73.7" r="2.5"/>
	<circle class="st0" cx="80.3" cy="73.7" r="2.5"/>
	<circle class="st0" cx="80.3" cy="80" r="2.5"/>
	<circle class="st0" cx="36.3" cy="156.4" r="2.5"/>
	<circle class="st0" cx="36.3" cy="162.8" r="2.5"/>
	<circle class="st0" cx="49.1" cy="162.8" r="2.5"/>
	<circle class="st0" cx="55.5" cy="156.4" r="2.5"/>
	<circle class="st0" cx="49.1" cy="156.4" r="2.5"/>
	<circle class="st0" cx="42.7" cy="156.4" r="2.5"/>
	<circle class="st0" cx="42.7" cy="162.8" r="2.5"/>
	<circle class="st0" cx="55.5" cy="162.8" r="2.5"/>
	<circle class="st0" cx="61.8" cy="156.4" r="2.5"/>
	<circle class="st0" cx="61.8" cy="162.8" r="2.5"/>
	<circle class="st0" cx="74.6" cy="162.8" r="2.5"/>
	<circle class="st0" cx="80.9" cy="156.4" r="2.5"/>
	<circle class="st0" cx="74.6" cy="156.4" r="2.5"/>
	<circle class="st0" cx="68.2" cy="156.4" r="2.5"/>
	<circle class="st0" cx="68.2" cy="162.8" r="2.5"/>
	<circle class="st0" cx="80.9" cy="162.8" r="2.5"/>
	<circle class="st0" cx="94.3" cy="162.2" r="2.5"/>
	<circle class="st0" cx="100.7" cy="155.8" r="2.5"/>
	<circle class="st0" cx="94.3" cy="155.8" r="2.5"/>
	<circle class="st0" cx="88" cy="155.8" r="2.5"/>
	<circle class="st0" cx="88" cy="162.2" r="2.5"/>
	<circle class="st0" cx="100.7" cy="162.2" r="2.5"/>
	<circle class="st0" cx="107.1" cy="155.8" r="2.5"/>
	<circle class="st0" cx="107.1" cy="162.2" r="2.5"/>
	<circle class="st0" cx="113.5" cy="155.8" r="2.5"/>
	<circle class="st0" cx="113.5" cy="162.2" r="2.5"/>
</g>
</svg>
