<?xml version="1.0" encoding="utf-8"?>
<!-- Generator: Adobe Illustrator 21.0.2, SVG Export Plug-In . SVG Version: 6.00 Build 0)  -->
<svg version="1.1" id="Layer_1" xmlns="http://www.w3.org/2000/svg" xmlns:xlink="http://www.w3.org/1999/xlink" x="0px" y="0px"
	 width="152.3px" height="165.1px" viewBox="0 0 152.3 165.1" style="enable-background:new 0 0 152.3 165.1;" xml:space="preserve"
	>
<style type="text/css">
	.st0{stroke:#000000;stroke-width:1.5781;stroke-miterlimit:10;}
	.st1{fill:#FFFFFF;}
	.st2{fill:none;stroke:#FFFFFF;stroke-width:1.5781;stroke-miterlimit:10;}
</style>
<g>
	<rect x="30" y="58.6" class="st0" width="121.5" height="20.5"/>
	<polygon points="6.3,78.4 151.5,79.9 151.5,165.1 6.3,165.1 	"/>
	<polygon points="0,45.2 6.3,45.2 18.9,57.8 30,57.8 30,78.4 6.3,78.4 6.3,59.4 	"/>
	<polygon class="st0" points="143.6,1 148.3,24.7 20.4,57.8 6.3,45.2 	"/>
	<polygon class="st1" points="29.2,38.1 48.1,50.7 71.8,44.4 51.3,30.2 	"/>
	<polygon class="st1" points="65.5,25.5 89.2,41.3 108.1,35 87.6,19.2 	"/>
	<polygon class="st1" points="104.9,12.9 130.2,30.2 147.6,25.5 125.5,6.5 	"/>
	<polygon class="st1" points="40.2,58.6 56,79.1 78.1,79.1 62.3,58.6 	"/>
	<polygon class="st1" points="82.9,58.6 100.2,79.1 122.3,79.1 104.9,58.6 	"/>
	<polygon class="st1" points="120.7,58.6 136.5,79.1 150.7,79.1 150.7,69.7 141.2,58.6 	"/>
	<circle class="st1" cx="10.3" cy="57" r="2.4"/>
	<circle class="st1" cx="12.6" cy="73.6" r="2.4"/>
	<circle class="st1" cx="25.2" cy="73.6" r="2.4"/>
	<line class="st2" x1="12.6" y1="98.9" x2="143.6" y2="98.9"/>
	<line class="st2" x1="12.6" y1="127.3" x2="143.6" y2="127.3"/>
	<line class="st2" x1="12.6" y1="136.7" x2="108.9" y2="136.7"/>
	<line class="st2" x1="12.6" y1="147.8" x2="143.6" y2="147.8"/>
	<line class="st2" x1="108.9" y1="127.3" x2="108.9" y2="147.8"/>
	<line class="st2" x1="47.8" y1="98.9" x2="47.8" y2="127.3"/>
	<line class="st2" x1="104.7" y1="98.9" x2="104.7" y2="127.3"/>
</g>
</svg>
