<?xml version="1.0" encoding="utf-8"?>
<!-- Generator: Adobe Illustrator 21.0.2, SVG Export Plug-In . SVG Version: 6.00 Build 0)  -->
<svg version="1.1" id="Layer_1" xmlns="http://www.w3.org/2000/svg" xmlns:xlink="http://www.w3.org/1999/xlink" x="0px" y="0px"
	 width="135px" height="176.1px" viewBox="0 0 135 176.1" style="enable-background:new 0 0 135 176.1;" xml:space="preserve">
<style type="text/css">
	.st0{fill:#B3B3B3;stroke:#4D4D4D;stroke-width:1.5881;stroke-miterlimit:10;}
	.st1{fill:none;stroke:#FFFFFF;stroke-width:1.6843;stroke-miterlimit:10;}
	.st2{fill:#FFFFFF;}
	.st3{opacity:0.36;fill:#999999;}
	.st4{fill:#B3B3B3;stroke:#B3B3B3;stroke-width:1.5159;stroke-miterlimit:10;}
	.st5{fill:none;stroke:#666666;stroke-width:1.5881;stroke-miterlimit:10;}
	.st6{fill:#FFFFFF;stroke:#666666;stroke-width:1.5881;stroke-miterlimit:10;}
</style>
<g>
	<circle class="st0" cx="67.5" cy="67.5" r="66.7"/>
	<path class="st1" d="M46.3,16c0,0-25.8,0-31.8,27.3"/>
	<path d="M67.5,134.2c0,0-24.3,19.7-37.9,19.7c-6.1,0-12.1-1.5-13.6,9.1c-1.5,4.5-4.5,16.7,10.6,12.1s51.8-23.3,59.3-43.5
		C84,132.2,72,134.2,67.5,134.2z"/>
	<g>
		<path class="st2" d="M69,135.7c-0.3,0.8-0.6,1.4-1.1,2c-0.4,0.6-0.9,1.1-1.4,1.6c-0.5,0.5-1,1-1.6,1.4c-0.6,0.4-1.2,0.8-2,1.1
			c0.3-0.8,0.6-1.4,1.1-2c0.4-0.6,0.9-1.1,1.4-1.6c0.5-0.5,1-1,1.6-1.4C67.6,136.3,68.3,136,69,135.7z"/>
	</g>
	<g>
		<path class="st2" d="M58.4,144.8c-0.3,0.7-0.7,1.2-1.1,1.7c-0.4,0.5-0.9,0.9-1.4,1.3c-0.5,0.4-1,0.7-1.6,1
			c-0.6,0.3-1.2,0.5-1.9,0.6c0.3-0.7,0.7-1.2,1.1-1.7c0.4-0.5,0.9-0.9,1.4-1.3c0.5-0.4,1-0.7,1.6-1
			C57.1,145.1,57.7,144.9,58.4,144.8z"/>
	</g>
	<g>
		<path class="st2" d="M49.3,150.9c-0.5,0.6-1.1,1-1.7,1.4c-0.6,0.4-1.2,0.7-1.8,0.9c-0.6,0.3-1.3,0.5-2,0.6
			c-0.7,0.1-1.4,0.2-2.1,0.1c0.5-0.6,1.1-1,1.7-1.4c0.6-0.4,1.2-0.7,1.8-0.9c0.6-0.2,1.3-0.5,2-0.6
			C47.8,150.9,48.5,150.8,49.3,150.9z"/>
	</g>
	<g>
		<path class="st2" d="M37.2,155.4c-0.5,0.5-1.1,0.8-1.7,1.1c-0.6,0.3-1.2,0.5-1.9,0.6c-0.6,0.1-1.3,0.2-2,0.2c-0.7,0-1.4-0.1-2-0.4
			c0.6-0.4,1.2-0.7,1.8-0.9c0.6-0.2,1.2-0.4,1.8-0.6c0.6-0.1,1.3-0.2,1.9-0.2C35.8,155.2,36.5,155.2,37.2,155.4z"/>
	</g>
	<g>
		<path class="st2" d="M26.6,156.9c-0.4,0.3-0.8,0.5-1.1,0.7c-0.4,0.1-0.8,0.2-1.1,0.2c-0.4,0-0.8-0.1-1.1-0.2
			c-0.4-0.1-0.8-0.3-1.1-0.7c0.4-0.4,0.8-0.5,1.1-0.7c0.4-0.1,0.8-0.2,1.1-0.2c0.4,0,0.8,0.1,1.1,0.2
			C25.8,156.4,26.2,156.6,26.6,156.9z"/>
	</g>
	<g>
		<path class="st2" d="M79.6,135.7c-0.1,0.7-0.3,1.3-0.6,1.9c-0.3,0.6-0.6,1.1-1,1.6c-0.4,0.5-0.8,1-1.3,1.4c-0.5,0.4-1,0.8-1.7,1.1
			c0.1-0.7,0.3-1.3,0.6-1.9c0.3-0.6,0.6-1.1,1-1.6c0.4-0.5,0.8-1,1.3-1.4C78.4,136.4,79,136,79.6,135.7z"/>
	</g>
	<g>
		<path class="st2" d="M72,144.8c-0.3,0.6-0.7,1.1-1.2,1.6c-0.4,0.5-0.9,0.9-1.4,1.2c-0.5,0.4-1,0.7-1.6,1c-0.6,0.3-1.2,0.5-1.8,0.7
			c0.2-0.7,0.6-1.3,1-1.7c0.4-0.5,0.9-0.9,1.4-1.3c0.5-0.4,1.1-0.7,1.7-1C70.7,145.1,71.3,144.9,72,144.8z"/>
	</g>
	<g>
		<path class="st2" d="M62.9,152.4c-0.3,0.7-0.7,1.2-1.1,1.7c-0.4,0.5-0.9,0.9-1.4,1.3c-0.5,0.4-1,0.7-1.6,1
			c-0.6,0.3-1.2,0.5-1.9,0.6c0.3-0.7,0.7-1.2,1.1-1.7c0.4-0.5,0.9-0.9,1.4-1.3c0.5-0.4,1-0.7,1.6-1
			C61.6,152.7,62.2,152.5,62.9,152.4z"/>
	</g>
	<g>
		<path class="st2" d="M53.9,158.4c-0.5,0.7-1,1.2-1.6,1.7c-0.6,0.5-1.2,0.9-1.8,1.3c-0.6,0.4-1.3,0.7-2,1c-0.7,0.3-1.4,0.5-2.2,0.6
			c0.5-0.7,1-1.2,1.6-1.7c0.6-0.5,1.2-0.9,1.8-1.3c0.6-0.4,1.3-0.7,2-1C52.3,158.7,53,158.5,53.9,158.4z"/>
	</g>
	<g>
		<path class="st2" d="M43.2,164.5c-0.3,0.5-0.6,0.8-0.9,1c-0.3,0.3-0.7,0.4-1.1,0.6c-0.4,0.1-0.8,0.2-1.2,0.2c-0.4,0-0.9,0-1.3-0.2
			c0.3-0.5,0.6-0.8,0.9-1c0.3-0.3,0.7-0.4,1.1-0.6c0.4-0.1,0.8-0.2,1.2-0.2C42.3,164.3,42.7,164.3,43.2,164.5z"/>
	</g>
	<g>
		<path class="st2" d="M35.7,167.5c-0.6,0.5-1.2,0.8-1.8,1c-0.6,0.3-1.2,0.4-1.9,0.6c-0.6,0.1-1.3,0.2-1.9,0.2c-0.7,0-1.3,0-2-0.3
			c0.6-0.5,1.2-0.8,1.8-1c0.6-0.3,1.2-0.4,1.9-0.6c0.6-0.1,1.3-0.2,1.9-0.2C34.3,167.3,35,167.3,35.7,167.5z"/>
	</g>
	<g>
		<path class="st2" d="M23.5,169.1c-0.5,0.3-1,0.5-1.5,0.7c-0.5,0.1-1,0.2-1.5,0.2c-0.5,0-1-0.1-1.5-0.2c-0.5-0.1-1-0.3-1.5-0.7
			c0.5-0.4,1-0.5,1.5-0.7c0.5-0.1,1-0.2,1.5-0.2c0.5,0,1,0.1,1.5,0.2C22.5,168.5,23,168.7,23.5,169.1z"/>
	</g>
	<circle class="st3" cx="78.1" cy="76.6" r="53.1"/>
	<circle class="st2" cx="100.8" cy="67.5" r="13.6"/>
	<circle class="st2" cx="64.5" cy="29.6" r="13.6"/>
	<circle class="st2" cx="26.6" cy="67.5" r="13.6"/>
	<circle class="st2" cx="64.5" cy="106.9" r="13.6"/>
	<circle cx="66" cy="67.5" r="37.9"/>
	<path class="st4" d="M31.1,53.9c0,0,6.1-16.7,19.7-21.2c-4.5,1.5,21.4,26,27.3-1.5c3,1.5,18.8,7.8,25,22
		c-4.6-1.1-16.7,3.4-15.9,14.4c0,4.5,3,15.2,15.2,13.6c-2,6.9-13,20.2-24.3,22.7c-1.5-6.1-5.3-11.4-12.9-11.4
		c-5.3-2.3-14.4,8.3-14.4,9.9c-1.5,0-15.2-7.6-19.7-21.2c6-1.5,9.9-9.9,9.9-12.9C41,62.2,40,57.8,31.1,53.9z"/>
	<circle class="st5" cx="26.6" cy="67.5" r="13.6"/>
	<circle class="st5" cx="64.5" cy="106.9" r="13.6"/>
	<circle class="st5" cx="64.5" cy="29.6" r="13.6"/>
	<circle class="st5" cx="100.8" cy="67.5" r="13.6"/>
	<circle class="st6" cx="63.7" cy="68.3" r="6.8"/>
</g>
</svg>
